# AST/ASF file generated using VICON BodyLanguage
# -----------------------------------------------
:version 1.10
:name VICON
:units
  mass 1.0
  length 0.45
  angle deg
:documentation
   .ast/.asf automatically generated from VICON data using
   VICON BodyBuilder and BodyLanguage model FoxedUp or BRILLIANT.MOD
:root
   order TX TY TZ RX RY RZ
   axis XYZ
   position 0 0 0  
   orientation 0 0 0 
:bonedata
  begin
     id 1 
     name lhipjoint
     direction 0.610259 -0.730986 0.305356 
     length 2.50941 
     axis 0 0 0  XYZ
  end
  begin
     id 2 
     name lfemur
     direction 0.34202 -0.939693 0  
     length 7.48822  
     axis 0 0 20  XYZ
    dof rx ry rz
    limits (-160.0 20.0)
           (-70.0 70.0)
           (-60.0 70.0)
  end
  begin
     id 3 
     name ltibia
     direction 0.34202 -0.939693 0   
     length 7.60141   
     axis 0 0 20   XYZ
    dof rx
    limits (-10.0 170.0)
  end
  begin
     id 4 
     name lfoot
     direction 0.0673488 -0.185039 0.980421   
     length 2.04049   
     axis -90 7.62852e-016 20   XYZ
    dof rx rz
    limits (-45.0 90.0)
           (-70.0 20.0)
  end
  begin
     id 5 
     name ltoes
     direction 1.5356e-011 -4.21729e-011 1   
     length 1.02897   
     axis -90 7.62852e-016 20   XYZ
    dof rx
    limits (-90.0 20.0)
  end
  begin
     id 6 
     name rhipjoint
     direction -0.57612 -0.754205 0.315056   
     length 2.43216  
     axis 0 0 0  XYZ 
  end
  begin
     id 7 
     name rfemur
     direction -0.34202 -0.939693 0   
     length 7.42799   
     axis 0 0 -20   XYZ
    dof rx ry rz
    limits (-160.0 20.0)
           (-70.0 70.0)
           (-70.0 60.0)
  end
  begin
     id 8 
     name rtibia
     direction -0.34202 -0.939693 0   
     length 7.69484   
     axis 0 0 -20   XYZ
    dof rx
    limits (-10.0 170.0)
 end
 begin
     id 9 
     name rfoot
     direction -0.111837 -0.30727 0.945028   
     length 2.15769  
     axis -90 -7.62852e-016 -20   XYZ
    dof rx rz
    limits (-45.0 90.0)
           (-20.0 70.0)
  end
  begin
     id 10 
     name rtoes
     direction -1.53539e-011 -4.21878e-011 1   
     length 1.07391   
     axis -90 -7.62852e-016 -20   XYZ
    dof rx
    limits (-90.0 20.0)
  end
  begin
     id 11 
     name lowerback
     direction 0.00552624 0.990109 -0.140195   
     length 2.12403   
     axis 0 0 0   XYZ
    dof rx ry rz
    limits (-20.0 45.0)
           (-30.0 30.0)
           (-30.0 30.0)
  end
  begin
     id 12 
     name upperback
     direction 0.00361898 0.999976 -0.00584723   
     length 2.13232   
     axis 0 0 0   XYZ
    dof rx ry rz
    limits (-20.0 45.0)
           (-30.0 30.0)
           (-30.0 30.0)
  end
  begin
     id 13 
     name thorax
     direction -0.000331275 0.998253 0.0590847   
     length 2.17688   
     axis 0 0 0   XYZ
    dof rx ry rz
    limits (-20.0 45.0)
           (-30.0 30.0)
           (-30.0 30.0)
  end
  begin
     id 14 
     name lowerneck
     direction -0.0561561 0.979832 0.19177   
     length 1.64159   
     axis 0 0 0   XYZ
    dof rx ry rz
    limits (-20.0 45.0)
           (-30.0 30.0)
           (-30.0 30.0)
  end
  begin
     id 15 
     name upperneck
     direction 0.0827153 0.979385 -0.184293   
     length 1.68939   
     axis 0 0 0   XYZ
    dof rx ry rz
    limits (-20.0 45.0)
           (-30.0 30.0)
           (-30.0 30.0)
  end
  begin
     id 16
     name head
     direction 0.0278583 0.995936 -0.0856488  
     length 1.70207  
     axis 0 0 0   XYZ
    dof rx ry rz
    limits (-20.0 45.0)
           (-30.0 30.0)
           (-30.0 30.0)
  end
  begin
     id 17 
     name lclavicle
     direction 0.950993 0.301131 -0.0702275  
     length 3.41652  
     axis 0 0 0   XYZ
    dof ry rz
    limits (-20.0 10.0)
           (0.0 20.0)
  end
  begin
     id 18 
     name lhumerus
     direction 1 -4.48981e-011 -3.9662e-029   
     length 5.32955   
     axis 180 -30 -90   XYZ
    dof rx ry rz
    limits (-60.0 90.0)
           (-90.0 90.0)
           (-90.0 90.0)
  end
  begin
     id 19
     name lradius
     direction 1 -4.48925e-011 -9.0549e-027   
     length 3.69232   
     axis 180 -30 -90   XYZ
    dof rx
    limits (-10.0 170.0)
  end
  begin
     id 20
     name lwrist
     direction 1 -4.49007e-011 -1.49005e-026   
     length 1.84616   
     axis 9.0955e-015 90 90   XYZ
    dof ry
    limits (-180.0 0.0)
 end
  begin
     id 21 
     name lhand
     direction 1 -4.49016e-011 -2.98023e-026   
     length 0.536598   
     axis 1.90115e-014 90 90   XYZ
    dof rx rz
    limits (-90.0 90.0)
           (-45.0 45.0)
  end
  begin
     id 22 
     name lfingers
     direction 1 -4.48924e-011 -5.9578e-026   
     length 0.432619   
     axis 3.80223e-014 90 90   XYZ
    dof rx
    limits (0.0 90.0)
  end
  begin
     id 23
     name lthumb
     direction 0.707107 -6.34947e-011 0.707107   
     length 0.621157   
     axis -90 45 -3.84942e-014   XYZ
    dof rx rz
    limits (-45.0 45.0)
           (-45.0 45.0)
  end
  begin
     id 24 
     name rclavicle
     direction -0.955495 0.276497 -0.102848   
     length 3.36357  
     axis 0 0 0   XYZ 
    dof ry rz
    limits (-10.0 20.0)
           (-20.0 0.0)
  end
  begin
     id 25 
     name rhumerus
     direction -1 -4.48961e-011 3.30983e-027  
     length 5.23431   
     axis 180 30 90   XYZ
    dof rx ry rz
    limits (-90.0 60.0)
           (-90.0 90.0)
           (-90.0 90.0)
  end
  begin
     id 26 
     name rradius
     direction -1 -4.48965e-011 -6.63263e-027   
     length 3.55301   
     axis 180 30 90   XYZ
    dof rx
    limits (-10.0 170.0)
  end
  begin
     id 27 
     name rwrist
     direction -1 -4.48942e-011 -1.48958e-026   
     length 1.77651   
     axis 9.0955e-015 -90 -90   XYZ
    dof ry
    limits (-180.0 0.0)
  end
  begin
     id 28
     name rhand
     direction -1 -4.48977e-011 -2.97966e-026   
     length 0.772522   
     axis 1.90115e-014 -90 -90   XYZ
    dof rx rz
    limits (-90.0 90.0)
           (-45.0 45.0)
  end
  begin
     id 29
     name rfingers
     direction -1 -4.49135e-011 -5.96389e-026   
     length 0.622827   
     axis 3.80223e-014 -90 -90   XYZ
    dof rx
    limits (0.0 90.0)
  end
  begin
     id 30
     name rthumb
     direction -0.707107 -6.34969e-011 0.707107   
     length 0.894259   
     axis -90 -45 3.84942e-014   XYZ
    dof rx rz
    limits (-45.0 45.0)
           (-45.0 45.0)
  end
:hierarchy
  begin
    root lhipjoint rhipjoint lowerback
    lhipjoint lfemur
    lfemur ltibia
    ltibia lfoot
    lfoot ltoes
    rhipjoint rfemur
    rfemur rtibia
    rtibia rfoot
    rfoot rtoes
    lowerback upperback
    upperback thorax
    thorax lowerneck lclavicle rclavicle
    lowerneck upperneck
    upperneck head
    lclavicle lhumerus
    lhumerus lradius
    lradius lwrist
    lwrist lhand lthumb
    lhand lfingers
    rclavicle rhumerus
    rhumerus rradius
    rradius rwrist
    rwrist rhand rthumb
    rhand rfingers
  end

#!OML:ASF F:\VICON\USERDATA\INSTALL\rory3\rory3.ASF
:FULLY-SPECIFIED
:DEGREES
423
root -13.3377 17.7646 8.06406 357.408 -2.76791 -359.004
lowerback 8.672 3.17295 0.477583
upperback -0.430312 4.21783 -1.10793
thorax -5.18763 2.05435 -1.9657
lowerneck -21.1182 -5.23813 -11.4882
upperneck 32.9576 -5.85045 6.88703
head 15.8121 -2.93646 3.78592
rclavicle -4.7129e-014 1.55052e-014
rhumerus -28.0481 -12.7849 -82.3489
rradius 27.8898
rwrist 7.73358
rhand -13.9021 7.6725
rfingers 7.12502
rthumb 12.2235 -21.9503
lclavicle -4.7129e-014 1.55052e-014
lhumerus -41.1979 11.504 78.3443
lradius 28.234
lwrist -7.91261
lhand -16.8076 26.4535
lfingers 7.12502
lthumb 9.42098 56.2229
rfemur 5.55705 -5.68906 18.7431
rtibia 46.001
rfoot 5.03296 4.58244
rtoes 1.41185
lfemur -14.5286 4.6014 -27.2159
ltibia 14.1651
lfoot 6.22093 1.27095
ltoes 10.8647
424
root -13.3279 17.7763 8.19942 357.12 -2.54586 -358.496
lowerback 8.85113 3.22834 0.155602
upperback -0.362759 4.24713 -1.30427
thorax -5.22525 2.07444 -2.00318
lowerneck -20.8052 -5.20553 -11.1865
upperneck 32.5931 -5.83254 6.60122
head 15.5363 -2.92905 3.60118
rclavicle 1.7271e-014 -9.34288e-015
rhumerus -28.4418 -12.6921 -82.5552
rradius 27.8257
rwrist 7.58519
rhand -13.9206 7.87141
rfingers 7.12502
rthumb 12.2057 -21.7525
lclavicle 1.7271e-014 -9.34288e-015
lhumerus -40.9489 10.9158 78.6137
lradius 28.3312
lwrist -7.81488
lhand -16.5121 26.5173
lfingers 7.12502
lthumb 9.7061 56.2736
rfemur 4.43963 -5.6075 17.8892
rtibia 48.422
rfoot 6.25939 5.75056
rtoes 2.91324
lfemur -13.6593 4.59956 -27.8339
ltibia 13.9787
lfoot 6.0339 1.07892
ltoes 12.5204
425
root -13.3211 17.7824 8.33217 356.806 -2.34667 -358.005
lowerback 9.01248 3.24698 -0.213614
upperback -0.225743 4.22541 -1.43269
thorax -5.19023 2.07237 -1.93319
lowerneck -20.6104 -5.14107 -10.9403
upperneck 32.2313 -5.6911 6.21045
head 15.2773 -2.89019 3.4075
rclavicle -3.64801e-014 7.95139e-015
rhumerus -28.4448 -12.4 -82.7998
rradius 27.3682
rwrist 7.4845
rhand -13.8795 7.91686
rfingers 7.12502
rthumb 12.2453 -21.7047
lclavicle -3.64801e-014 7.95139e-015
lhumerus -40.6737 10.3715 78.9743
lradius 28.5983
lwrist -7.68288
lhand -15.9568 26.4201
lfingers 7.12502
lthumb 10.2419 56.1508
rfemur 3.39441 -5.47987 17.1047
rtibia 50.7155
rfoot 6.67407 6.24617
rtoes 3.43794
lfemur -12.8044 4.49789 -28.4113
ltibia 13.9136
lfoot 5.69869 1.08366
ltoes 11.899
426
root -13.3169 17.7876 8.45746 356.583 -2.09475 -357.583
lowerback 9.12444 3.26036 -0.530528
upperback -0.112383 4.20465 -1.51248
thorax -5.15192 2.06972 -1.83961
lowerneck -20.6274 -5.14701 -11.1187
upperneck 32.2273 -5.60184 6.14524
head 15.275 -2.88301 3.42756
rclavicle -5.64238e-014 1.45113e-014
rhumerus -28.4381 -11.9076 -83.0614
rradius 26.9999
rwrist 7.21667
rhand -14.1803 7.77624
rfingers 7.12502
rthumb 11.9553 -21.8624
lclavicle -5.64238e-014 1.45113e-014
lhumerus -40.4012 9.9806 79.3571
lradius 28.9527
lwrist -7.85344
lhand -15.5066 26.2473
lfingers 7.12502
lthumb 10.6761 55.956
rfemur 2.30514 -5.36219 16.4819
rtibia 52.9102
rfoot 6.31175 6.19341
rtoes 2.99669
lfemur -12.1009 4.21072 -28.8657
ltibia 13.8523
lfoot 5.43518 1.22445
ltoes 11.9773
427
root -13.3136 17.7897 8.57782 356.432 -1.78786 -357.278
lowerback 9.28091 3.27988 -0.733743
upperback -0.149066 4.20053 -1.60817
thorax -5.28597 2.07024 -1.83773
lowerneck -20.3659 -5.1422 -11.1104
upperneck 32.2512 -5.57037 5.98631
head 15.2175 -2.89492 3.36719
rclavicle 5.02762e-014 -2.16675e-014
rhumerus -28.7335 -11.5984 -83.2747
rradius 26.641
rwrist 7.45173
rhand -14.7511 8.20204
rfingers 7.12502
rthumb 11.4048 -21.4678
lclavicle 5.02762e-014 -2.16675e-014
lhumerus -40.3305 9.33821 79.6747
lradius 29.3469
lwrist -7.97485
lhand -15.3335 26.4859
lfingers 7.12502
lthumb 10.8431 56.186
rfemur 1.16788 -5.21507 16.0668
rtibia 54.9849
rfoot 5.5736 5.60674
rtoes 2.01552
lfemur -11.4654 4.00579 -29.2178
ltibia 13.8177
lfoot 5.06274 1.25148
ltoes 12.0191
428
root -13.3123 17.7852 8.69537 356.273 -1.3863 -356.992
lowerback 9.38943 3.27527 -0.950197
upperback -0.138365 4.16403 -1.69383
thorax -5.34577 2.05619 -1.80835
lowerneck -20.2142 -5.14182 -11.0716
upperneck 32.316 -5.5648 5.88037
head 15.2075 -2.90528 3.31965
rclavicle 3.27665e-014 -1.11319e-014
rhumerus -28.8803 -11.485 -83.4043
rradius 26.2795
rwrist 8.10233
rhand -14.7822 8.4096
rfingers 7.12502
rthumb 11.3748 -21.2619
lclavicle 3.27665e-014 -1.11319e-014
lhumerus -40.1692 8.57659 80.0369
lradius 29.7019
lwrist -7.97362
lhand -15.3524 26.6969
lfingers 7.12502
lthumb 10.8249 56.3979
rfemur 0.0500728 -5.1479 15.6805
rtibia 56.8806
rfoot 4.65356 4.58981
rtoes 0.520097
lfemur -10.7435 4.08587 -29.6401
ltibia 13.7231
lfoot 4.58992 0.791161
ltoes 10.4027
